<svg id="Layer_1" data-name="Layer 1" xmlns="http://www.w3.org/2000/svg" viewBox="0 0 533.65 502.71"><defs><style>.cls-1{fill:#b3b3b3;}.cls-2{fill:#6d6e71;}.cls-3{fill:#8dc63f;}</style></defs><path class="cls-1" d="M407.8,120.71c-1.77-.07-3.54-.1-5.33-.1a146.34,146.34,0,1,0,133.4,206.61H504.4a118.41,118.41,0,0,1-218.91-78.32C294.25,192.56,343,149.77,400,148.59c2.63-.06,5.25,0,7.84.09Z" transform="translate(-129.18 -48.91)"/><path class="cls-2" d="M391.76,288l32.34-20.32a2.79,2.79,0,0,0-1.48-5.15H374.2a2.79,2.79,0,0,1-2.79-2.79V225.22a2.79,2.79,0,0,1,2.79-2.79h40.2a2.77,2.77,0,0,0,1.48-.43l34.46-21.64a2.8,2.8,0,0,0-1.49-5.16H343.14a2.79,2.79,0,0,0-2.79,2.79V345.47a2.79,2.79,0,0,0,2.79,2.79h25.48a2.79,2.79,0,0,0,2.79-2.79V290.83A2.79,2.79,0,0,1,374.2,288h17.28A.54.54,0,0,0,391.76,288Z" transform="translate(-129.18 -48.91)"/><path class="cls-3" d="M594.48,48.91H434.93V49l-43.7,26.12a2.35,2.35,0,0,0,1.3,4.38H398a2.48,2.48,0,0,0,1.4.44H558.26a2.31,2.31,0,0,1,1.09,1.93V272.51c0,102.2-79.42,185-177.39,185-70.66,0-131.52-43.18-160-105.56a2.35,2.35,0,0,0-3.39-1l-22.27,14a2.4,2.4,0,0,0-.9,3,216.74,216.74,0,0,0,63.21,79.09c35.61,30.43,80.87,48.68,130.24,48.68,114.89,0,208-98.53,208-220.07V51.32A2.39,2.39,0,0,0,594.48,48.91Z" transform="translate(-129.18 -48.91)"/><path class="cls-2" d="M133.75,550.41a8.1,8.1,0,0,1-3.38-3.09,8.84,8.84,0,0,1-1.19-4.61v-2.44a.42.42,0,0,1,.13-.32.45.45,0,0,1,.33-.14h4.52a.47.47,0,0,1,.33.14.42.42,0,0,1,.13.32v2.44a4,4,0,0,0,1.14,3,4.21,4.21,0,0,0,3.11,1.14A4.39,4.39,0,0,0,142,545.7a3.91,3.91,0,0,0,1.21-3V524.64a.45.45,0,0,1,.14-.33.44.44,0,0,1,.32-.13h4.48a.44.44,0,0,1,.33.13.45.45,0,0,1,.14.33v18.07a8.59,8.59,0,0,1-1.24,4.61,8.26,8.26,0,0,1-3.44,3.09,11.17,11.17,0,0,1-5,1.1A11.29,11.29,0,0,1,133.75,550.41Z" transform="translate(-129.18 -48.91)"/><path class="cls-2" d="M171.6,550.81,170.45,547a.23.23,0,0,0-.2-.15h-9.49a.23.23,0,0,0-.2.15l-1.12,3.78a.48.48,0,0,1-.5.39H154a.42.42,0,0,1-.35-.14.4.4,0,0,1,0-.4l8.34-26.1a.48.48,0,0,1,.5-.38h6.07a.48.48,0,0,1,.5.38l8.34,26.1a.53.53,0,0,1,0,.19c0,.23-.15.35-.43.35h-4.9A.49.49,0,0,1,171.6,550.81Zm-9.49-8.14h6.79c.16,0,.21-.08.16-.23L165.58,531c0-.1-.06-.15-.11-.13s-.09,0-.12.13L162,542.44C161.93,542.59,162,542.67,162.11,542.67Z" transform="translate(-129.18 -48.91)"/><path class="cls-2" d="M186.58,550.33a8.47,8.47,0,0,1-3.51-3.3,9.61,9.61,0,0,1-1.23-4.9v-8.92a9.59,9.59,0,0,1,1.23-4.9,8.45,8.45,0,0,1,3.51-3.29,12.86,12.86,0,0,1,10.52,0,8.29,8.29,0,0,1,3.52,3.12,8.83,8.83,0,0,1,1.25,4.7c0,.23-.15.37-.46.42l-4.52.27h-.08c-.25,0-.38-.14-.38-.43a4.4,4.4,0,0,0-1.26-3.28,4.49,4.49,0,0,0-3.3-1.23,4.57,4.57,0,0,0-3.34,1.23,4.43,4.43,0,0,0-1.25,3.28v9.31a4.35,4.35,0,0,0,1.25,3.24,4.54,4.54,0,0,0,3.34,1.24,4.46,4.46,0,0,0,3.3-1.24,4.32,4.32,0,0,0,1.26-3.24c0-.28.15-.42.46-.42l4.52.19a.52.52,0,0,1,.33.11.35.35,0,0,1,.13.27,8.86,8.86,0,0,1-1.25,4.71,8.4,8.4,0,0,1-3.52,3.17,11.54,11.54,0,0,1-5.23,1.12A11.33,11.33,0,0,1,186.58,550.33Z" transform="translate(-129.18 -48.91)"/><path class="cls-2" d="M208.34,551.06a.42.42,0,0,1-.14-.32v-26.1a.45.45,0,0,1,.14-.33.44.44,0,0,1,.33-.13h4.51a.44.44,0,0,1,.33.13.45.45,0,0,1,.14.33v10.81c0,.08,0,.12.07.13a.15.15,0,0,0,.16-.05l8.92-11.09a.74.74,0,0,1,.58-.26h5.09c.21,0,.34.05.39.17a.42.42,0,0,1-.08.4l-8.61,11a.22.22,0,0,0,0,.27l9.11,14.63a1.69,1.69,0,0,1,.08.27c0,.18-.13.27-.38.27h-5.1a.54.54,0,0,1-.54-.31l-6.87-11.12a.13.13,0,0,0-.12-.07.21.21,0,0,0-.15.07l-2.44,3.05a.61.61,0,0,0-.07.23v7.69a.48.48,0,0,1-.47.46h-4.51A.42.42,0,0,1,208.34,551.06Z" transform="translate(-129.18 -48.91)"/><path class="cls-2" d="M237.74,550.52a7.86,7.86,0,0,1-3.57-2.81,7.38,7.38,0,0,1-1.26-4.27v-.85a.45.45,0,0,1,.14-.33.44.44,0,0,1,.32-.13h4.41a.44.44,0,0,1,.32.13.45.45,0,0,1,.14.33v.58a3.15,3.15,0,0,0,1.43,2.61,6.38,6.38,0,0,0,3.86,1.06,4.57,4.57,0,0,0,3.05-.87,2.73,2.73,0,0,0,1-2.14,2.15,2.15,0,0,0-.62-1.57,5.53,5.53,0,0,0-1.67-1.12c-.71-.32-1.84-.76-3.38-1.33a32.57,32.57,0,0,1-4.39-1.81,8.86,8.86,0,0,1-3-2.53,6.37,6.37,0,0,1-1.21-4,7,7,0,0,1,1.19-4,7.65,7.65,0,0,1,3.33-2.67,12.24,12.24,0,0,1,4.9-.92,12.46,12.46,0,0,1,5.23,1,8.54,8.54,0,0,1,3.59,2.91,7.49,7.49,0,0,1,1.29,4.35v.58a.42.42,0,0,1-.13.32.45.45,0,0,1-.33.14h-4.44a.45.45,0,0,1-.33-.14.42.42,0,0,1-.13-.32v-.31a3.51,3.51,0,0,0-1.34-2.76,5.4,5.4,0,0,0-3.64-1.14,4.65,4.65,0,0,0-2.84.77,2.52,2.52,0,0,0-1,2.12,2.28,2.28,0,0,0,.59,1.62,5.1,5.1,0,0,0,1.78,1.18c.78.35,2,.82,3.65,1.41a44.52,44.52,0,0,1,4.3,1.78,8.54,8.54,0,0,1,2.82,2.29,6,6,0,0,1,1.25,4,6.92,6.92,0,0,1-2.66,5.74,11.34,11.34,0,0,1-7.22,2.1A13.62,13.62,0,0,1,237.74,550.52Z" transform="translate(-129.18 -48.91)"/><path class="cls-2" d="M263.51,550.39a8.82,8.82,0,0,1-3.57-3.46,10,10,0,0,1-1.28-5.11v-8.26a9.91,9.91,0,0,1,1.28-5.06,8.66,8.66,0,0,1,3.57-3.42,12.32,12.32,0,0,1,10.65,0,8.78,8.78,0,0,1,3.57,3.42,9.91,9.91,0,0,1,1.28,5.06v8.26a10.17,10.17,0,0,1-1.28,5.13,8.69,8.69,0,0,1-3.57,3.46,11.26,11.26,0,0,1-5.35,1.21A11.06,11.06,0,0,1,263.51,550.39Zm8.74-4.79a4.9,4.9,0,0,0,1.31-3.59v-8.49a5.05,5.05,0,0,0-1.29-3.61,4.53,4.53,0,0,0-3.46-1.37,4.48,4.48,0,0,0-3.41,1.37,5,5,0,0,0-1.3,3.61V542a4.93,4.93,0,0,0,1.3,3.59,4.5,4.5,0,0,0,3.41,1.35A4.59,4.59,0,0,0,272.25,545.6Z" transform="translate(-129.18 -48.91)"/><path class="cls-2" d="M301.18,524.31a.44.44,0,0,1,.33-.13H306a.44.44,0,0,1,.46.46v26.1a.41.41,0,0,1-.13.32.42.42,0,0,1-.33.14h-4.36a.54.54,0,0,1-.54-.31l-10-16.52c-.05-.08-.1-.11-.16-.1s-.07.07-.07.17l.07,16.3a.41.41,0,0,1-.13.32.42.42,0,0,1-.33.14H286a.43.43,0,0,1-.33-.14.41.41,0,0,1-.13-.32v-26.1a.44.44,0,0,1,.13-.33.46.46,0,0,1,.33-.13h4.37a.56.56,0,0,1,.54.31l10,16.44c.05.08.1.11.15.1s.08-.07.08-.18l0-16.21A.44.44,0,0,1,301.18,524.31Z" transform="translate(-129.18 -48.91)"/><path class="cls-2" d="M327.84,550.33a8.36,8.36,0,0,1-3.51-3.3,9.52,9.52,0,0,1-1.24-4.9v-8.92a9.49,9.49,0,0,1,1.24-4.9,8.33,8.33,0,0,1,3.51-3.29,11.54,11.54,0,0,1,5.29-1.15,11.7,11.7,0,0,1,5.23,1.1,8.29,8.29,0,0,1,3.52,3.12,8.83,8.83,0,0,1,1.25,4.7c0,.23-.15.37-.46.42l-4.52.27h-.08c-.25,0-.38-.14-.38-.43a4.4,4.4,0,0,0-1.26-3.28,4.51,4.51,0,0,0-3.3-1.23,4.57,4.57,0,0,0-3.34,1.23,4.43,4.43,0,0,0-1.25,3.28v9.31a4.35,4.35,0,0,0,1.25,3.24,4.54,4.54,0,0,0,3.34,1.24,4.47,4.47,0,0,0,3.3-1.24,4.32,4.32,0,0,0,1.26-3.24c0-.28.15-.42.46-.42l4.52.19a.52.52,0,0,1,.33.11.35.35,0,0,1,.13.27,8.86,8.86,0,0,1-1.25,4.71,8.4,8.4,0,0,1-3.52,3.17,11.57,11.57,0,0,1-5.23,1.12A11.3,11.3,0,0,1,327.84,550.33Z" transform="translate(-129.18 -48.91)"/><path class="cls-2" d="M353.77,550.39a8.9,8.9,0,0,1-3.58-3.46,10.14,10.14,0,0,1-1.27-5.11v-8.26a10,10,0,0,1,1.27-5.06,8.74,8.74,0,0,1,3.58-3.42,12.32,12.32,0,0,1,10.65,0A8.78,8.78,0,0,1,368,528.5a9.91,9.91,0,0,1,1.28,5.06v8.26A10.17,10.17,0,0,1,368,547a8.69,8.69,0,0,1-3.57,3.46,11.26,11.26,0,0,1-5.35,1.21A11.06,11.06,0,0,1,353.77,550.39Zm8.74-4.79a4.94,4.94,0,0,0,1.31-3.59v-8.49a5.05,5.05,0,0,0-1.29-3.61,4.53,4.53,0,0,0-3.46-1.37,4.48,4.48,0,0,0-3.41,1.37,5,5,0,0,0-1.3,3.61V542a4.93,4.93,0,0,0,1.3,3.59,4.5,4.5,0,0,0,3.41,1.35A4.59,4.59,0,0,0,362.51,545.6Z" transform="translate(-129.18 -48.91)"/><path class="cls-2" d="M391.44,524.31a.44.44,0,0,1,.33-.13h4.52a.44.44,0,0,1,.46.46v26.1a.41.41,0,0,1-.13.32.42.42,0,0,1-.33.14h-4.36a.54.54,0,0,1-.54-.31l-10-16.52c-.05-.08-.1-.11-.16-.1s-.07.07-.07.17l.07,16.3a.41.41,0,0,1-.13.32.42.42,0,0,1-.33.14h-4.52a.42.42,0,0,1-.33-.14.41.41,0,0,1-.13-.32v-26.1a.44.44,0,0,1,.46-.46h4.37a.56.56,0,0,1,.54.31l10,16.44c.05.08.1.11.15.1s.08-.07.08-.18l0-16.21A.44.44,0,0,1,391.44,524.31Z" transform="translate(-129.18 -48.91)"/><path class="cls-2" d="M407.68,550.52a7.86,7.86,0,0,1-3.57-2.81,7.38,7.38,0,0,1-1.26-4.27v-.85a.45.45,0,0,1,.14-.33.44.44,0,0,1,.33-.13h4.4a.46.46,0,0,1,.33.13.44.44,0,0,1,.13.33v.58a3.17,3.17,0,0,0,1.43,2.61,6.38,6.38,0,0,0,3.86,1.06,4.57,4.57,0,0,0,3-.87,2.73,2.73,0,0,0,1-2.14,2.18,2.18,0,0,0-.61-1.57,5.72,5.72,0,0,0-1.68-1.12c-.71-.32-1.84-.76-3.38-1.33a31.85,31.85,0,0,1-4.38-1.81,8.77,8.77,0,0,1-3-2.53,6.31,6.31,0,0,1-1.22-4,7,7,0,0,1,1.2-4,7.57,7.57,0,0,1,3.32-2.67,12.27,12.27,0,0,1,4.9-.92,12.46,12.46,0,0,1,5.23,1,8.54,8.54,0,0,1,3.59,2.91,7.49,7.49,0,0,1,1.29,4.35v.58a.42.42,0,0,1-.13.32.45.45,0,0,1-.33.14h-4.44a.45.45,0,0,1-.33-.14.42.42,0,0,1-.13-.32v-.31a3.53,3.53,0,0,0-1.33-2.76,5.45,5.45,0,0,0-3.65-1.14,4.65,4.65,0,0,0-2.84.77,2.52,2.52,0,0,0-1,2.12,2.29,2.29,0,0,0,.6,1.62,5,5,0,0,0,1.77,1.18c.79.35,2,.82,3.65,1.41a43.46,43.46,0,0,1,4.3,1.78,8.44,8.44,0,0,1,2.82,2.29,6,6,0,0,1,1.26,4,6.93,6.93,0,0,1-2.67,5.74,11.34,11.34,0,0,1-7.22,2.1A13.62,13.62,0,0,1,407.68,550.52Z" transform="translate(-129.18 -48.91)"/><path class="cls-2" d="M433.72,550.35a8.53,8.53,0,0,1-3.52-3.26,9.34,9.34,0,0,1-1.25-4.85v-17.6a.44.44,0,0,1,.13-.33.46.46,0,0,1,.33-.13h4.52a.44.44,0,0,1,.46.46v17.64a4.56,4.56,0,1,0,9.11,0V524.64a.45.45,0,0,1,.14-.33.44.44,0,0,1,.33-.13h4.52a.44.44,0,0,1,.32.13.45.45,0,0,1,.14.33v17.6a9.25,9.25,0,0,1-1.26,4.85,8.51,8.51,0,0,1-3.51,3.26,12.37,12.37,0,0,1-10.46,0Z" transform="translate(-129.18 -48.91)"/><path class="cls-2" d="M455.92,551.06a.42.42,0,0,1-.14-.32v-26.1a.45.45,0,0,1,.14-.33.44.44,0,0,1,.33-.13h4.51a.44.44,0,0,1,.33.13.45.45,0,0,1,.14.33v21.7a.17.17,0,0,0,.19.19H474a.44.44,0,0,1,.46.46v3.75a.41.41,0,0,1-.13.32.42.42,0,0,1-.33.14H456.25A.42.42,0,0,1,455.92,551.06Z" transform="translate(-129.18 -48.91)"/><path class="cls-2" d="M496,524.31a.45.45,0,0,1,.14.33v3.78a.48.48,0,0,1-.47.47h-6.91a.17.17,0,0,0-.19.19v21.66a.42.42,0,0,1-.14.32.41.41,0,0,1-.32.14h-4.52a.42.42,0,0,1-.33-.14.41.41,0,0,1-.13-.32V529.08c0-.13-.07-.19-.2-.19H476.2a.45.45,0,0,1-.32-.14.45.45,0,0,1-.14-.33v-3.78a.45.45,0,0,1,.14-.33.44.44,0,0,1,.32-.13h19.46A.44.44,0,0,1,496,524.31Z" transform="translate(-129.18 -48.91)"/><path class="cls-2" d="M502.09,551.06a.42.42,0,0,1-.14-.32v-26.1a.45.45,0,0,1,.14-.33.44.44,0,0,1,.33-.13h4.51a.44.44,0,0,1,.33.13.45.45,0,0,1,.14.33v26.1a.48.48,0,0,1-.47.46h-4.51A.42.42,0,0,1,502.09,551.06Z" transform="translate(-129.18 -48.91)"/><path class="cls-2" d="M530.12,524.31a.44.44,0,0,1,.33-.13H535a.44.44,0,0,1,.46.46v26.1a.41.41,0,0,1-.13.32.42.42,0,0,1-.33.14H530.6a.54.54,0,0,1-.54-.31l-10-16.52c0-.08-.1-.11-.16-.1s-.07.07-.07.17l.07,16.3a.41.41,0,0,1-.13.32.42.42,0,0,1-.33.14h-4.51a.48.48,0,0,1-.47-.46v-26.1a.45.45,0,0,1,.14-.33.44.44,0,0,1,.33-.13h4.36a.56.56,0,0,1,.54.31l10,16.44c.05.08.1.11.15.1s.08-.07.08-.18l0-16.21A.42.42,0,0,1,530.12,524.31Z" transform="translate(-129.18 -48.91)"/><path class="cls-2" d="M546.73,550.31A8.68,8.68,0,0,1,543.2,547a9.6,9.6,0,0,1-1.25-5v-8.65a9.72,9.72,0,0,1,1.25-5,8.47,8.47,0,0,1,3.53-3.33,12.3,12.3,0,0,1,10.45,0,9,9,0,0,1,3.51,3.15,8.18,8.18,0,0,1,1.25,4.42v.27a.44.44,0,0,1-.13.33.45.45,0,0,1-.33.14H557a.45.45,0,0,1-.32-.14.45.45,0,0,1-.14-.33v-.11a4,4,0,0,0-1.23-3,5,5,0,0,0-6.63.07,4.69,4.69,0,0,0-1.25,3.38v9a4.44,4.44,0,0,0,1.35,3.37,4.75,4.75,0,0,0,3.44,1.3,4.68,4.68,0,0,0,3.2-1.06,3.76,3.76,0,0,0,1.2-3v-1.74a.18.18,0,0,0-.2-.19h-4.32a.44.44,0,0,1-.46-.46v-3.55a.44.44,0,0,1,.46-.46h9.42a.44.44,0,0,1,.46.46V542a10.14,10.14,0,0,1-1.23,5.1,8.24,8.24,0,0,1-3.49,3.3,11.49,11.49,0,0,1-5.24,1.14A11.11,11.11,0,0,1,546.73,550.31Z" transform="translate(-129.18 -48.91)"/><path class="cls-1" d="M596.88,526.57H582.72c-.11,0-.16,0-.16.15v9.54a.14.14,0,0,0,.16.16h9.92a.33.33,0,0,1,.38.38v1.62a.34.34,0,0,1-.38.39h-9.92c-.11,0-.16.05-.16.15v11.85a.34.34,0,0,1-.39.39h-2a.34.34,0,0,1-.39-.39V524.56c0-.26.13-.38.39-.38h16.67c.26,0,.39.12.39.38v1.62A.34.34,0,0,1,596.88,526.57Z" transform="translate(-129.18 -48.91)"/><path class="cls-1" d="M604.1,550.81V524.56c0-.26.13-.38.39-.38h2a.33.33,0,0,1,.38.38v26.25a.34.34,0,0,1-.38.39h-2A.34.34,0,0,1,604.1,550.81Z" transform="translate(-129.18 -48.91)"/><path class="cls-1" d="M631.75,550.93l-5.68-12a.15.15,0,0,0-.15-.11h-6.57a.13.13,0,0,0-.15.15v11.81a.34.34,0,0,1-.39.39h-2c-.26,0-.38-.13-.38-.39V524.56a.33.33,0,0,1,.38-.38h10a7.25,7.25,0,0,1,5.37,2.06,7.34,7.34,0,0,1,2,5.39,7.24,7.24,0,0,1-1.46,4.59,6.64,6.64,0,0,1-4,2.43c-.1.05-.13.12-.08.2l5.8,11.89a.5.5,0,0,1,0,.19c0,.18-.1.27-.31.27h-2A.44.44,0,0,1,631.75,550.93ZM619.2,526.72v9.77c0,.11,0,.16.15.16h7.18a4.78,4.78,0,0,0,5-5,5,5,0,0,0-1.39-3.65,4.87,4.87,0,0,0-3.63-1.41h-7.18A.13.13,0,0,0,619.2,526.72Z" transform="translate(-129.18 -48.91)"/><path class="cls-1" d="M660.43,524.18h2a.33.33,0,0,1,.38.38v26.25a.34.34,0,0,1-.38.39h-2a.34.34,0,0,1-.39-.39V529.35c0-.08,0-.13-.08-.15s-.09,0-.11.07l-6.29,9.65a.57.57,0,0,1-.47.27h-1a.56.56,0,0,1-.46-.23l-6.3-9.57c0-.08-.06-.11-.11-.08a.16.16,0,0,0-.08.15v21.35a.34.34,0,0,1-.39.39h-2a.34.34,0,0,1-.38-.39V524.56a.33.33,0,0,1,.38-.38h2a.49.49,0,0,1,.46.23l7.26,11a.2.2,0,0,0,.24,0l7.18-11A.56.56,0,0,1,660.43,524.18Z" transform="translate(-129.18 -48.91)"/></svg>